PathFileType	4	(X/Y/Z)	\\move.snu.ac.kr\motion\Animal\091204_091205_Bird\091205_bird\Project 2\Capture day 2\Session 1\pigeon_021.trc
DataRate	CameraRate	NumFrames	NumMarkers	Units	OrigDataRate	OrigDataStartFrame	OrigNumFrames
240.0	240.0	10	14	mm	240.0	35	2193
Frame#	Time	14MarkersBird:Head			14MarkersBird:C_back			14MarkersBird:Spine			14MarkersBird:L-shoulder			14MarkersBird:L-elbow			14MarkersBird:L-wrist			14MarkersBird:L-hand			14MarkersBird:R-shoulder			14MarkersBird:R-elbow			14MarkersBird:R-Wrist			14MarkersBird:R-hand			14MarkersBird:C_Tail			14MarkersBird:L-Tale			14MarkersBird:R-Tale			
		X1	Y1	Z1	X2	Y2	Z2	X3	Y3	Z3	X4	Y4	Z4	X5	Y5	Z5	X6	Y6	Z6	X7	Y7	Z7	X8	Y8	Z8	X9	Y9	Z9	X10	Y10	Z10	X11	Y11	Z11	X12	Y12	Z12	X13	Y13	Z13	X14	Y14	Z14	

904	3.763	838.95129	1474.66931	-2138.34155	901.33026	1467.69141	-2141.47437	953.88959	1451.63672	-2141.04712	871.26184	1471.29004	-2118.74316	896.43164	1469.88879	-2096.52368	854.71649	1469.68994	-2090.95288	836.02917	1451.87341	-2083.20483	869.28149	1453.42969	-2162.68848	890.01947	1443.12939	-2180.33667	851.03992	1436.91565	-2178.95337	827.54669	1408.69067	-2172.83545	1043.70728	1373.43640	-2100.19482	992.89386	1445.23730	-2041.92407	992.02246	1354.23376	-2194.96289	
905	3.767	832.55768	1473.48767	-2138.77856	894.65710	1467.61865	-2141.11230	947.49835	1451.91577	-2139.83398	864.67969	1471.10669	-2118.90234	892.94220	1471.68018	-2098.86621	851.76520	1476.06531	-2093.08545	834.66418	1458.39868	-2084.48022	863.74457	1453.99121	-2162.66382	888.12415	1446.97363	-2179.72363	849.67230	1443.77979	-2181.64453	828.17383	1414.61804	-2176.28882	1036.73828	1373.92993	-2097.19409	984.63861	1446.27820	-2040.14075	987.05090	1353.57996	-2191.65405	
906	3.771	826.15942	1472.25183	-2139.33838	887.85504	1467.24243	-2140.71655	940.96521	1451.97314	-2138.59717	857.97247	1470.71484	-2119.13794	889.28412	1473.72571	-2102.04980	849.36963	1483.09216	-2095.14697	835.10547	1466.57495	-2084.48975	858.13342	1454.45520	-2162.51270	889.71863	1448.93909	-2180.54785	848.93781	1451.10840	-2184.92456	830.88770	1421.57275	-2182.46045	1029.54333	1374.29333	-2093.92285	976.05237	1447.32507	-2038.32971	981.53101	1352.67578	-2188.44165	
907	3.775	819.81213	1471.02405	-2140.03906	881.00494	1466.60034	-2140.29858	934.34613	1451.81165	-2137.34741	851.18182	1470.14258	-2119.46313	885.23547	1475.72485	-2105.94775	847.29022	1490.13403	-2097.47534	837.09650	1475.74048	-2084.13232	852.46045	1454.81726	-2162.23486	889.05011	1456.99988	-2181.13403	848.54510	1458.63879	-2187.99805	835.33185	1429.66174	-2189.95654	1022.17633	1374.57019	-2090.37402	967.26758	1448.31519	-2036.50574	975.62415	1351.65588	-2185.48413	
908	3.779	813.53217	1469.83362	-2140.87231	874.19147	1465.73547	-2139.87036	927.69751	1451.41882	-2136.08740	844.33240	1469.42126	-2119.87329	880.60785	1477.38904	-2110.42139	845.19812	1496.70203	-2100.39795	840.14716	1485.24365	-2084.41724	846.76105	1455.06409	-2161.84058	885.33691	1464.21277	-2175.89941	848.13074	1466.16846	-2190.18555	841.02332	1439.11475	-2197.19727	1014.72528	1374.78137	-2086.61206	958.37341	1449.13416	-2034.67920	969.53717	1350.68018	-2182.95044	
909	3.783	807.38654	1468.73926	-2141.83423	867.49176	1464.68579	-2139.43481	921.06580	1450.78394	-2134.81348	837.52576	1468.52014	-2120.34863	875.27600	1478.58801	-2115.20361	842.93597	1502.50439	-2103.94922	843.58447	1494.62305	-2086.30273	841.05884	1455.15698	-2161.40039	879.58966	1470.10864	-2168.12817	847.34180	1473.52100	-2191.12769	847.20660	1450.07275	-2202.84473	1007.33032	1374.96130	-2082.75391	949.48340	1449.74219	-2032.86206	963.47064	1349.87073	-2180.95093	
910	3.787	801.36298	1467.74365	-2142.91089	860.95197	1463.49939	-2138.98315	914.52557	1449.91064	-2133.47485	830.78217	1467.48376	-2120.87280	869.23413	1479.19470	-2119.95020	840.30176	1507.41028	-2107.99780	846.66553	1503.50684	-2090.23022	835.35638	1455.03833	-2160.94678	872.83099	1474.00854	-2159.67651	845.82727	1480.47681	-2190.87305	852.90857	1462.39331	-2206.21313	1000.14630	1375.15063	-2078.94092	940.68188	1450.13318	-2031.09216	957.59595	1349.30847	-2179.52051	
911	3.792	795.43152	1466.80261	-2144.05713	854.61517	1462.20959	-2138.51392	908.14917	1448.81445	-2132.03198	824.16040	1466.35132	-2121.39624	862.49872	1479.29846	-2124.31250	837.21246	1511.37292	-2112.01025	848.82129	1511.69116	-2095.80347	829.67065	1454.66162	-2160.56738	866.40344	1475.62634	-2155.89233	843.37885	1486.74207	-2189.83008	857.20605	1475.66138	-2207.40259	993.28204	1375.38538	-2075.31250	932.03943	1450.37634	-2029.40601	952.00751	1349.00159	-2178.60596	
912	3.796	789.56842	1465.86133	-2145.23145	848.48938	1460.84631	-2138.05054	901.95575	1447.52759	-2130.49438	817.75256	1465.16040	-2121.88574	855.41321	1478.97058	-2127.85596	833.64435	1514.37598	-2115.43286	849.53040	1519.02185	-2102.32080	824.02734	1454.01929	-2160.36206	859.21545	1476.37537	-2152.28271	840.00116	1491.90198	-2188.56567	859.32538	1488.95203	-2206.89746	986.79163	1375.69556	-2071.97900	923.57959	1450.53333	-2027.84521	946.76709	1348.92090	-2178.09009	
913	3.800	783.74530	1464.95117	-2146.40405	842.53784	1459.41113	-2137.63037	895.90393	1446.06738	-2128.92114	811.54694	1463.95215	-2122.32739	848.01941	1478.44580	-2130.41113	829.54968	1516.46655	-2117.62354	848.43787	1525.37402	-2108.64233	818.39429	1453.05017	-2160.37036	851.36426	1476.25305	-2149.37524	835.67065	1495.53052	-2187.68921	858.85364	1501.13928	-2205.77246	980.67694	1376.07214	-2069.00537	915.29810	1450.68164	-2026.43652	941.82397	1348.96716	-2177.80273	
